{
  "accessors": [
    {
      "bufferView": 2,
      "componentType": 5126,
      "count": 3679,
      "max": [
        4.0711259841918945,
        58.00498962402344,
        5.079418182373047
      ],
      "min": [
        -7.081923484802246,
        11.299866676330566,
        -9.814153671264648
      ],
      "type": "VEC3"
    },
    {
      "bufferView": 2,
      "byteOffset": 44148,
      "componentType": 5126,
      "count": 3679,
      "max": [
        0.9999784827232361,
        0.9983714818954468,
        0.9965554475784302
      ],
      "min": [
        -0.9998301267623901,
        -0.9958924055099487,
        -0.9999016523361206
      ],
      "type": "VEC3"
    },
    {
      "bufferView": 1,
      "componentType": 5126,
      "count": 3679,
      "max": [
        0.9934430122375488,
        0.9983770251274109
      ],
      "min": [
        0.005115999840199947,
        0.41706597805023193
      ],
      "type": "VEC2"
    },
    {
      "bufferView": 0,
      "componentType": 5125,
      "count": 10584,
      "type": "SCALAR"
    },
    {
      "bufferView": 2,
      "byteOffset": 88296,
      "componentType": 5126,
      "count": 9686,
      "max": [
        27.9730224609375,
        60.51949691772461,
        5.501174449920654
      ],
      "min": [
        -27.998485565185547,
        2.6910760402679443,
        -3.0965349674224854
      ],
      "type": "VEC3"
    },
    {
      "bufferView": 2,
      "byteOffset": 204528,
      "componentType": 5126,
      "count": 9686,
      "max": [
        0.9999193549156189,
        0.9999123811721802,
        0.9999982714653015
      ],
      "min": [
        -0.999913215637207,
        -0.9998078942298889,
        -0.9996320009231567
      ],
      "type": "VEC3"
    },
    {
      "bufferView": 1,
      "byteOffset": 29432,
      "componentType": 5126,
      "count": 9686,
      "max": [
        0.363290011882782,
        1.0
      ],
      "min": [
        0.0,
        0.004013001918792725
      ],
      "type": "VEC2"
    },
    {
      "bufferView": 0,
      "byteOffset": 42336,
      "componentType": 5125,
      "count": 48210,
      "type": "SCALAR"
    },
    {
      "bufferView": 2,
      "byteOffset": 320760,
      "componentType": 5126,
      "count": 4606,
      "max": [
        29.947551727294922,
        59.21940612792969,
        4.668062210083008
      ],
      "min": [
        -29.9660587310791,
        47.84040069580078,
        -6.442720413208008
      ],
      "type": "VEC3"
    },
    {
      "bufferView": 2,
      "byteOffset": 376032,
      "componentType": 5126,
      "count": 4606,
      "max": [
        0.9988905787467957,
        0.9994722008705139,
        0.9999503493309021
      ],
      "min": [
        -0.9988880157470703,
        -0.9996435046195984,
        -0.999717116355896
      ],
      "type": "VEC3"
    },
    {
      "bufferView": 1,
      "byteOffset": 106920,
      "componentType": 5126,
      "count": 4606,
      "max": [
        0.9982920289039612,
        0.9944679737091064
      ],
      "min": [
        0.0017500000540167093,
        0.35832101106643677
      ],
      "type": "VEC2"
    },
    {
      "bufferView": 0,
      "byteOffset": 235176,
      "componentType": 5125,
      "count": 20643,
      "type": "SCALAR"
    },
    {
      "bufferView": 2,
      "byteOffset": 431304,
      "componentType": 5126,
      "count": 5850,
      "max": [
        21.722461700439453,
        59.11402130126953,
        5.4254584312438965
      ],
      "min": [
        -21.755081176757813,
        28.380035400390625,
        -5.544851303100586
      ],
      "type": "VEC3"
    },
    {
      "bufferView": 2,
      "byteOffset": 501504,
      "componentType": 5126,
      "count": 5850,
      "max": [
        0.9983839988708496,
        0.9999021291732788,
        0.9998868107795715
      ],
      "min": [
        -0.999871551990509,
        -0.9999834299087524,
        -0.9999877214431763
      ],
      "type": "VEC3"
    },
    {
      "bufferView": 1,
      "byteOffset": 143768,
      "componentType": 5126,
      "count": 5850,
      "max": [
        0.9928349852561951,
        0.3878830075263977
      ],
      "min": [
        0.002222999930381775,
        0.0034620165824890137
      ],
      "type": "VEC2"
    },
    {
      "bufferView": 0,
      "byteOffset": 317748,
      "componentType": 5125,
      "count": 28122,
      "type": "SCALAR"
    },
    {
      "bufferView": 2,
      "byteOffset": 571704,
      "componentType": 5126,
      "count": 14283,
      "max": [
        4.0033860206604,
        68.4827651977539,
        5.236378192901611
      ],
      "min": [
        -4.141045570373535,
        53.03031921386719,
        -8.198756217956543
      ],
      "type": "VEC3"
    },
    {
      "bufferView": 2,
      "byteOffset": 743100,
      "componentType": 5126,
      "count": 14283,
      "max": [
        0.9998813271522522,
        0.9998645186424255,
        0.9999268054962158
      ],
      "min": [
        -0.9999509453773499,
        -0.999968409538269,
        -0.9999326467514038
      ],
      "type": "VEC3"
    },
    {
      "bufferView": 1,
      "byteOffset": 190568,
      "componentType": 5126,
      "count": 14283,
      "max": [
        0.9960259795188904,
        0.9971299767494202
      ],
      "min": [
        0.00622300012037158,
        0.0021319985389709473
      ],
      "type": "VEC2"
    },
    {
      "bufferView": 0,
      "byteOffset": 430236,
      "componentType": 5125,
      "count": 48708,
      "type": "SCALAR"
    },
    {
      "bufferView": 2,
      "byteOffset": 914496,
      "componentType": 5126,
      "count": 8487,
      "max": [
        3.7708799839019775,
        68.03280639648438,
        4.361995697021484
      ],
      "min": [
        -3.796355962753296,
        58.735748291015625,
        -3.7526564598083496
      ],
      "type": "VEC3"
    },
    {
      "bufferView": 2,
      "byteOffset": 1016340,
      "componentType": 5126,
      "count": 8487,
      "max": [
        0.9996796250343323,
        0.9999921321868896,
        0.9999869465827942
      ],
      "min": [
        -0.9996320605278015,
        -0.9999269843101501,
        -0.9995728135108948
      ],
      "type": "VEC3"
    },
    {
      "bufferView": 1,
      "byteOffset": 304832,
      "componentType": 5126,
      "count": 8487,
      "max": [
        0.9966109991073608,
        0.9920769929885864
      ],
      "min": [
        0.3660140037536621,
        0.002668023109436035
      ],
      "type": "VEC2"
    },
    {
      "bufferView": 0,
      "byteOffset": 625068,
      "componentType": 5125,
      "count": 38256,
      "type": "SCALAR"
    },
    {
      "bufferView": 2,
      "byteOffset": 1118184,
      "componentType": 5126,
      "count": 5096,
      "max": [
        5.273468017578125,
        7.208860874176025,
        6.676593780517578
      ],
      "min": [
        -4.607266902923584,
        2.370230197906494,
        -3.793365955352783
      ],
      "type": "VEC3"
    },
    {
      "bufferView": 2,
      "byteOffset": 1179336,
      "componentType": 5126,
      "count": 5096,
      "max": [
        0.9998469948768616,
        0.99990314245224,
        0.9956210255622864
      ],
      "min": [
        -0.9997715353965759,
        -0.999599039554596,
        -0.9981273412704468
      ],
      "type": "VEC3"
    },
    {
      "bufferView": 1,
      "byteOffset": 372728,
      "componentType": 5126,
      "count": 5096,
      "max": [
        0.996330976486206,
        0.6054940223693848
      ],
      "min": [
        0.0024560000747442245,
        0.0017529726028442383
      ],
      "type": "VEC2"
    },
    {
      "bufferView": 0,
      "byteOffset": 778092,
      "componentType": 5125,
      "count": 16548,
      "type": "SCALAR"
    },
    {
      "bufferView": 2,
      "byteOffset": 1240488,
      "componentType": 5126,
      "count": 1908,
      "max": [
        4.387739658355713,
        20.14558982849121,
        5.740976333618164
      ],
      "min": [
        -4.413186073303223,
        2.6583547592163086,
        -3.248361825942993
      ],
      "type": "VEC3"
    },
    {
      "bufferView": 2,
      "byteOffset": 1263384,
      "componentType": 5126,
      "count": 1908,
      "max": [
        0.9999603033065796,
        0.9964864253997803,
        0.9936317205429077
      ],
      "min": [
        -0.9999594688415527,
        -0.7480573654174805,
        -0.9983701109886169
      ],
      "type": "VEC3"
    },
    {
      "bufferView": 1,
      "byteOffset": 413496,
      "componentType": 5126,
      "count": 1908,
      "max": [
        0.9935420155525208,
        0.9916549921035767
      ],
      "min": [
        0.009430999867618084,
        0.6849510073661804
      ],
      "type": "VEC2"
    },
    {
      "bufferView": 0,
      "byteOffset": 844284,
      "componentType": 5125,
      "count": 9294,
      "type": "SCALAR"
    },
    {
      "bufferView": 2,
      "byteOffset": 1286280,
      "componentType": 5126,
      "count": 2111,
      "max": [
        5.182199001312256,
        57.53963851928711,
        4.126012802124023
      ],
      "min": [
        -5.207676887512207,
        37.2227668762207,
        -3.1345040798187256
      ],
      "type": "VEC3"
    },
    {
      "bufferView": 2,
      "byteOffset": 1311612,
      "componentType": 5126,
      "count": 2111,
      "max": [
        0.9996710419654846,
        0.999919593334198,
        0.9999529123306274
      ],
      "min": [
        -0.9996721148490906,
        -0.9996464848518372,
        -0.9995677471160889
      ],
      "type": "VEC3"
    },
    {
      "bufferView": 1,
      "byteOffset": 428760,
      "componentType": 5126,
      "count": 2111,
      "max": [
        0.9868959784507751,
        0.6640670299530029
      ],
      "min": [
        0.0066709998063743114,
        0.010948002338409424
      ],
      "type": "VEC2"
    },
    {
      "bufferView": 0,
      "byteOffset": 881460,
      "componentType": 5125,
      "count": 8436,
      "type": "SCALAR"
    }
  ],
  "asset": {
    "extras": {
      "author": "VückyZ (https://sketchfab.com/vuckyz123)",
      "license": "CC-BY-4.0 (http://creativecommons.org/licenses/by/4.0/)",
      "source": "https://sketchfab.com/3d-models/vrc-lapwing-92f3ee0bc77542eb83a1f6efecf9a465",
      "title": "[VRC] Lapwing"
    },
    "generator": "Sketchfab-16.68.0",
    "version": "2.0"
  },
  "bufferViews": [
    {
      "buffer": 0,
      "byteLength": 915204,
      "name": "floatBufferViews",
      "target": 34963
    },
    {
      "buffer": 0,
      "byteLength": 445648,
      "byteOffset": 915204,
      "byteStride": 8,
      "name": "floatBufferViews",
      "target": 34962
    },
    {
      "buffer": 0,
      "byteLength": 1336944,
      "byteOffset": 1360852,
      "byteStride": 12,
      "name": "floatBufferViews",
      "target": 34962
    }
  ],
  "buffers": [
    {
      "byteLength": 2697796,
      "uri": "scene.bin"
    }
  ],
  "extensionsUsed": [
    "KHR_materials_unlit"
  ],
  "images": [
    {
      "uri": "textures/ShoeBag_baseColor.jpeg"
    },
    {
      "uri": "textures/Material.001_baseColor.jpeg"
    },
    {
      "uri": "textures/Material.004_baseColor.jpeg"
    },
    {
      "uri": "textures/Material.005_baseColor.jpeg"
    },
    {
      "uri": "textures/Material.002_baseColor.jpeg"
    }
  ],
  "materials": [
    {
      "doubleSided": true,
      "extensions": {
        "KHR_materials_unlit": {}
      },
      "name": "ShoeBag",
      "pbrMetallicRoughness": {
        "baseColorTexture": {
          "index": 0
        },
        "metallicFactor": 0.0
      }
    },
    {
      "doubleSided": true,
      "extensions": {
        "KHR_materials_unlit": {}
      },
      "name": "Material.001",
      "pbrMetallicRoughness": {
        "baseColorTexture": {
          "index": 1
        },
        "metallicFactor": 0.0
      }
    },
    {
      "doubleSided": true,
      "extensions": {
        "KHR_materials_unlit": {}
      },
      "name": "Material.004",
      "pbrMetallicRoughness": {
        "baseColorTexture": {
          "index": 2
        },
        "metallicFactor": 0.0
      }
    },
    {
      "doubleSided": true,
      "extensions": {
        "KHR_materials_unlit": {}
      },
      "name": "Material.003",
      "pbrMetallicRoughness": {
        "baseColorTexture": {
          "index": 2
        },
        "metallicFactor": 0.0
      }
    },
    {
      "doubleSided": true,
      "extensions": {
        "KHR_materials_unlit": {}
      },
      "name": "Material.005",
      "pbrMetallicRoughness": {
        "baseColorTexture": {
          "index": 3
        },
        "metallicFactor": 0.0
      }
    },
    {
      "doubleSided": true,
      "extensions": {
        "KHR_materials_unlit": {}
      },
      "name": "Material.006",
      "pbrMetallicRoughness": {
        "baseColorTexture": {
          "index": 1
        },
        "metallicFactor": 0.0
      }
    },
    {
      "doubleSided": true,
      "extensions": {
        "KHR_materials_unlit": {}
      },
      "name": "Material.002",
      "pbrMetallicRoughness": {
        "baseColorTexture": {
          "index": 4
        },
        "metallicFactor": 0.0
      }
    }
  ],
  "meshes": [
    {
      "name": "Object_0",
      "primitives": [
        {
          "attributes": {
            "NORMAL": 1,
            "POSITION": 0,
            "TEXCOORD_0": 2
          },
          "indices": 3,
          "material": 0,
          "mode": 4
        }
      ]
    },
    {
      "name": "Object_1",
      "primitives": [
        {
          "attributes": {
            "NORMAL": 5,
            "POSITION": 4,
            "TEXCOORD_0": 6
          },
          "indices": 7,
          "material": 1,
          "mode": 4
        }
      ]
    },
    {
      "name": "Object_2",
      "primitives": [
        {
          "attributes": {
            "NORMAL": 9,
            "POSITION": 8,
            "TEXCOORD_0": 10
          },
          "indices": 11,
          "material": 2,
          "mode": 4
        }
      ]
    },
    {
      "name": "Object_3",
      "primitives": [
        {
          "attributes": {
            "NORMAL": 13,
            "POSITION": 12,
            "TEXCOORD_0": 14
          },
          "indices": 15,
          "material": 3,
          "mode": 4
        }
      ]
    },
    {
      "name": "Object_4",
      "primitives": [
        {
          "attributes": {
            "NORMAL": 17,
            "POSITION": 16,
            "TEXCOORD_0": 18
          },
          "indices": 19,
          "material": 4,
          "mode": 4
        }
      ]
    },
    {
      "name": "Object_5",
      "primitives": [
        {
          "attributes": {
            "NORMAL": 21,
            "POSITION": 20,
            "TEXCOORD_0": 22
          },
          "indices": 23,
          "material": 5,
          "mode": 4
        }
      ]
    },
    {
      "name": "Object_6",
      "primitives": [
        {
          "attributes": {
            "NORMAL": 25,
            "POSITION": 24,
            "TEXCOORD_0": 26
          },
          "indices": 27,
          "material": 0,
          "mode": 4
        }
      ]
    },
    {
      "name": "Object_7",
      "primitives": [
        {
          "attributes": {
            "NORMAL": 29,
            "POSITION": 28,
            "TEXCOORD_0": 30
          },
          "indices": 31,
          "material": 6,
          "mode": 4
        }
      ]
    },
    {
      "name": "Object_8",
      "primitives": [
        {
          "attributes": {
            "NORMAL": 33,
            "POSITION": 32,
            "TEXCOORD_0": 34
          },
          "indices": 35,
          "material": 6,
          "mode": 4
        }
      ]
    }
  ],
  "nodes": [
    {
      "children": [
        1
      ],
      "matrix": [
        0.026180889457464218,
        0.0,
        0.0,
        0.0,
        0.0,
        5.8133252561685596e-18,
        -0.026180889457464218,
        0.0,
        0.0,
        0.026180889457464218,
        5.8133252561685596e-18,
        0.0,
        0.0,
        0.0,
        0.0,
        1.0
      ],
      "name": "Sketchfab_model"
    },
    {
      "children": [
        2
      ],
      "name": "root"
    },
    {
      "children": [
        3
      ],
      "matrix": [
        1.0,
        0.0,
        0.0,
        0.0,
        0.0,
        2.220446049250313e-16,
        1.0,
        0.0,
        0.0,
        -1.0,
        2.220446049250313e-16,
        0.0,
        0.0,
        0.0,
        0.0,
        1.0
      ],
      "name": "GLTF_SceneRootNode"
    },
    {
      "children": [
        4,
        6,
        8,
        10,
        12,
        14,
        16,
        18,
        20
      ],
      "name": "bag_skeleton_131"
    },
    {
      "children": [
        5
      ],
      "name": "bag_0"
    },
    {
      "mesh": 0,
      "name": "Object_5"
    },
    {
      "children": [
        7
      ],
      "name": "body_1"
    },
    {
      "mesh": 1,
      "name": "Object_7"
    },
    {
      "children": [
        9
      ],
      "name": "cloth_2"
    },
    {
      "mesh": 2,
      "name": "Object_9"
    },
    {
      "children": [
        11
      ],
      "name": "cloth1_3"
    },
    {
      "mesh": 3,
      "name": "Object_11"
    },
    {
      "children": [
        13
      ],
      "name": "hair_4"
    },
    {
      "mesh": 4,
      "name": "Object_13"
    },
    {
      "children": [
        15
      ],
      "name": "head_5"
    },
    {
      "mesh": 5,
      "name": "Object_15"
    },
    {
      "children": [
        17
      ],
      "name": "shoes_6"
    },
    {
      "mesh": 6,
      "name": "Object_17"
    },
    {
      "children": [
        19
      ],
      "name": "sockes_7"
    },
    {
      "mesh": 7,
      "name": "Object_19"
    },
    {
      "children": [
        21
      ],
      "name": "underwear_8"
    },
    {
      "mesh": 8,
      "name": "Object_21"
    }
  ],
  "samplers": [
    {
      "magFilter": 9729,
      "minFilter": 9987,
      "wrapS": 10497,
      "wrapT": 10497
    }
  ],
  "scene": 0,
  "scenes": [
    {
      "name": "Sketchfab_Scene",
      "nodes": [
        0
      ]
    }
  ],
  "textures": [
    {
      "sampler": 0,
      "source": 0
    },
    {
      "sampler": 0,
      "source": 1
    },
    {
      "sampler": 0,
      "source": 2
    },
    {
      "sampler": 0,
      "source": 3
    },
    {
      "sampler": 0,
      "source": 4
    }
  ]
}
